# xmcd CD database file
#
# Track frame offsets:
#	150
#	16448
#	34538
#	54073
#	75115
#	94987
#	111213
#	128630
#	144813
#	156975
#	174693
#	192341
#
# Disc length: 2811 seconds
#
# Revision: 1
# Processed by: cddbd v1.5.2PL0 Copyright (c) Steve Scherf et al.
# Submitted via: CDex 1.51
#
DISCID=8b0af90c
DTITLE=Various Artist - STTW-3109
DYEAR=1900
DGENRE=Blues
TTITLE0=Tom Jones - Delilah
TTITLE1=T Spoon - Sex On The Beach
TTITLE2=Ray Parker Jr - Ghostbusters
TTITLE3=Steps - Tragedy
TTITLE4=Pato Banton - Baby Come Back
TTITLE5=Stephanie De Sykes - Born With A Smile On My Face
TTITLE6=Proclaimers The - 500 Miles (i'm gonna be)
TTITLE7=Adam And The Ants - Prince Charming
TTITLE8=Bruce Channel - Hey Baby
TTITLE9=Atomic Kitten - The Tide Is High
TTITLE10=Real Thing The - You To Me Are Everything
TTITLE11=Boney M - Megamix
EXTD=
EXTT0=
EXTT1=
EXTT2=
EXTT3=
EXTT4=
EXTT5=
EXTT6=
EXTT7=
EXTT8=
EXTT9=
EXTT10=
EXTT11=
PLAYORDER=
